# AST/ASF file generated using VICON BodyLanguage
# -----------------------------------------------
:version 1.10
:name VICON
:units
  mass 1.0
  length 0.45
  angle deg
:documentation
   .ast/.asf automatically generated from VICON data using
   VICON BodyBuilder and BodyLanguage model FoxedUp or BRILLIANT.MOD
:root
   order TX TY TZ RX RY RZ
   axis XYZ
   position 0 0 0  
   orientation 0 0 0 
:bonedata
  begin
     id 1 
     name lhipjoint
     direction 0.62366 -0.717238 0.310833 
     length 2.53602 
     axis 0 0 0  XYZ
  end
  begin
     id 2 
     name lfemur
     direction 0.34202 -0.939693 0  
     length 7.40817  
     axis 0 0 20  XYZ
    dof rx ry rz
    limits (-160.0 20.0)
           (-70.0 70.0)
           (-60.0 70.0)
  end
  begin
     id 3 
     name ltibia
     direction 0.34202 -0.939693 0   
     length 7.7045   
     axis 0 0 20   XYZ
    dof rx
    limits (-10.0 170.0)
  end
  begin
     id 4 
     name lfoot
     direction 0.0673888 -0.185149 0.980397   
     length 2.09456   
     axis -90 7.62852e-016 20   XYZ
    dof rx rz
    limits (-45.0 90.0)
           (-70.0 20.0)
  end
  begin
     id 5 
     name ltoes
     direction 1.53575e-011 -4.21994e-011 1   
     length 1.05543   
     axis -90 7.62852e-016 20   XYZ
    dof rx
    limits (-90.0 20.0)
  end
  begin
     id 6 
     name rhipjoint
     direction -0.489018 -0.800347 0.346851   
     length 2.27268  
     axis 0 0 0  XYZ 
  end
  begin
     id 7 
     name rfemur
     direction -0.34202 -0.939693 0   
     length 7.55487   
     axis 0 0 -20   XYZ
    dof rx ry rz
    limits (-160.0 20.0)
           (-70.0 70.0)
           (-70.0 60.0)
  end
  begin
     id 8 
     name rtibia
     direction -0.34202 -0.939693 0   
     length 7.78969   
     axis 0 0 -20   XYZ
    dof rx
    limits (-10.0 170.0)
 end
 begin
     id 9 
     name rfoot
     direction -0.0859318 -0.236096 0.967923   
     length 2.19143  
     axis -90 -7.62852e-016 -20   XYZ
    dof rx rz
    limits (-45.0 90.0)
           (-20.0 70.0)
  end
  begin
     id 10 
     name rtoes
     direction -1.53538e-011 -4.21989e-011 1   
     length 1.09845   
     axis -90 -7.62852e-016 -20   XYZ
    dof rx
    limits (-90.0 20.0)
  end
  begin
     id 11 
     name lowerback
     direction -0.00762546 0.998978 -0.0445553   
     length 1.98161   
     axis 0 0 0   XYZ
    dof rx ry rz
    limits (-20.0 45.0)
           (-30.0 30.0)
           (-30.0 30.0)
  end
  begin
     id 12 
     name upperback
     direction 0.0422361 0.998867 -0.0219156   
     length 1.97558   
     axis 0 0 0   XYZ
    dof rx ry rz
    limits (-20.0 45.0)
           (-30.0 30.0)
           (-30.0 30.0)
  end
  begin
     id 13 
     name thorax
     direction 0.0442465 0.999021 7.47603e-005   
     length 1.97799   
     axis 0 0 0   XYZ
    dof rx ry rz
    limits (-20.0 45.0)
           (-30.0 30.0)
           (-30.0 30.0)
  end
  begin
     id 14 
     name lowerneck
     direction 0.00312169 0.984641 0.174564   
     length 1.78995   
     axis 0 0 0   XYZ
    dof rx ry rz
    limits (-20.0 45.0)
           (-30.0 30.0)
           (-30.0 30.0)
  end
  begin
     id 15 
     name upperneck
     direction -0.0383028 0.985255 -0.166749   
     length 1.83053   
     axis 0 0 0   XYZ
    dof rx ry rz
    limits (-20.0 45.0)
           (-30.0 30.0)
           (-30.0 30.0)
  end
  begin
     id 16
     name head
     direction -0.0129546 0.997059 -0.0755386  
     length 1.84088  
     axis 0 0 0   XYZ
    dof rx ry rz
    limits (-20.0 45.0)
           (-30.0 30.0)
           (-30.0 30.0)
  end
  begin
     id 17 
     name lclavicle
     direction 0.912857 0.370519 -0.171488  
     length 3.51279  
     axis 0 0 0   XYZ
    dof ry rz
    limits (-20.0 10.0)
           (0.0 20.0)
  end
  begin
     id 18 
     name lhumerus
     direction 1 -4.48962e-011 3.64361e-027   
     length 4.95663   
     axis 180 -30 -90   XYZ
    dof rx ry rz
    limits (-60.0 90.0)
           (-90.0 90.0)
           (-90.0 90.0)
  end
  begin
     id 19
     name lradius
     direction 1 -4.48974e-011 5.97202e-027   
     length 3.38177   
     axis 180 -30 -90   XYZ
    dof rx
    limits (-10.0 170.0)
  end
  begin
     id 20
     name lwrist
     direction 1 -4.4896e-011 9.83288e-027   
     length 1.69088   
     axis -9.31221e-015 90 90   XYZ
    dof ry
    limits (-180.0 0.0)
 end
  begin
     id 21 
     name lhand
     direction 1 -4.4902e-011 1.96551e-026   
     length 0.662909   
     axis -1.25475e-014 90 90   XYZ
    dof rx rz
    limits (-90.0 90.0)
           (-45.0 45.0)
  end
  begin
     id 22 
     name lfingers
     direction 1 -4.48971e-011 3.93277e-026   
     length 0.534454   
     axis -2.50945e-014 90 90   XYZ
    dof rx
    limits (0.0 90.0)
  end
  begin
     id 23
     name lthumb
     direction 0.707107 -6.34933e-011 0.707107   
     length 0.767373   
     axis -90 45 -4.80359e-014   XYZ
    dof rx rz
    limits (-45.0 45.0)
           (-45.0 45.0)
  end
  begin
     id 24 
     name rclavicle
     direction -0.900919 0.395364 -0.178976   
     length 3.40627  
     axis 0 0 0   XYZ 
    dof ry rz
    limits (-10.0 20.0)
           (-20.0 0.0)
  end
  begin
     id 25 
     name rhumerus
     direction -1 -4.48969e-011 1.03875e-027  
     length 5.08365   
     axis 180 30 90   XYZ
    dof rx ry rz
    limits (-90.0 60.0)
           (-90.0 90.0)
           (-90.0 90.0)
  end
  begin
     id 26 
     name rradius
     direction -1 -4.48951e-011 5.02733e-027   
     length 3.35984   
     axis 180 30 90   XYZ
    dof rx
    limits (-10.0 170.0)
  end
  begin
     id 27 
     name rwrist
     direction -1 -4.49011e-011 9.82828e-027   
     length 1.67992   
     axis -9.31221e-015 -90 -90   XYZ
    dof ry
    limits (-180.0 0.0)
  end
  begin
     id 28
     name rhand
     direction -1 -4.48894e-011 1.96774e-026   
     length 0.820764   
     axis -1.25475e-014 -90 -90   XYZ
    dof rx rz
    limits (-90.0 90.0)
           (-45.0 45.0)
  end
  begin
     id 29
     name rfingers
     direction -1 -4.49095e-011 3.92833e-026   
     length 0.661721   
     axis -2.50945e-014 -90 -90   XYZ
    dof rx
    limits (0.0 90.0)
  end
  begin
     id 30
     name rthumb
     direction -0.707107 -6.34881e-011 0.707107   
     length 0.950103   
     axis -90 -45 4.80359e-014   XYZ
    dof rx rz
    limits (-45.0 45.0)
           (-45.0 45.0)
  end
:hierarchy
  begin
    root lhipjoint rhipjoint lowerback
    lhipjoint lfemur
    lfemur ltibia
    ltibia lfoot
    lfoot ltoes
    rhipjoint rfemur
    rfemur rtibia
    rtibia rfoot
    rfoot rtoes
    lowerback upperback
    upperback thorax
    thorax lowerneck lclavicle rclavicle
    lowerneck upperneck
    upperneck head
    lclavicle lhumerus
    lhumerus lradius
    lradius lwrist
    lwrist lhand lthumb
    lhand lfingers
    rclavicle rhumerus
    rhumerus rradius
    rradius rwrist
    rwrist rhand rthumb
    rhand rfingers
  end

#!OML:ASF I:\golf\golf\golf 2\Subject 1\2002-09-07\Subject1.ASF
:FULLY-SPECIFIED
:DEGREES
16
root -5.99218 17.8886 0.294138 -84.8823 85.2435 -102.082
lowerback -1.18175 1.90441 -0.946018
upperback 3.4214 2.52791 3.90662
thorax 3.97797 1.19848 4.6961
lowerneck -14.5541 -1.93514 1.79731
upperneck 38.9122 -0.214338 -3.54525
head 16.3751 0.245913 -1.75737
rclavicle 3.37934e-014 5.725e-014
rhumerus -6.73262 -5.96824 -102.164
rradius 22.8191
rwrist -43.3124
rhand -11.7558 -8.96877
rfingers 7.12502
rthumb 14.2924 -38.4569
lclavicle 3.37934e-014 5.725e-014
lhumerus -10.8364 -45.7854 110.106
lradius 25.0907
lwrist 41.9016
lhand -13.0532 70.5671
lfingers 7.12502
lthumb -166.958 79.8606
rfemur -27.6539 -0.517982 12.4881
rtibia 22.5847
rfoot -6.64847 -9.26394
rtoes -14.7548
lfemur -28.8374 8.99534 -6.97821
ltibia 26.5003
lfoot -9.66572 -0.44006
ltoes -20.0036
17
root -5.99036 17.8873 0.297409 -83.1208 85.2496 -100.251
lowerback -1.18211 1.98903 -1.08614
upperback 3.48279 2.64483 3.95192
thorax 4.02426 1.25075 4.82981
lowerneck -14.6169 -1.98073 1.76145
upperneck 38.9416 -0.273004 -3.53935
head 16.404 0.217781 -1.75995
rclavicle -1.05356e-014 1.59028e-015
rhumerus -6.65093 -6.34599 -102.092
rradius 22.7497
rwrist -43.0799
rhand -11.2178 -9.10488
rfingers 7.12502
rthumb 14.8107 -38.5556
lclavicle -1.05356e-014 1.59028e-015
lhumerus -10.6817 -45.6969 110.062
lradius 24.998
lwrist 41.5313
lhand -12.9205 70.6224
lfingers 7.12502
lthumb -166.83 79.8135
rfemur -27.6287 -0.360924 12.4741
rtibia 22.6372
rfoot -6.71297 -9.28258
rtoes -14.2555
lfemur -28.6912 9.14906 -6.98921
ltibia 26.48
lfoot -9.70308 -0.37366
ltoes -20.6306
18
root -5.98949 17.8885 0.299275 -81.8424 85.2773 -98.8996
lowerback -1.17806 2.05584 -1.19218
upperback 3.5443 2.73718 3.97338
thorax 4.07227 1.2919 4.91817
lowerneck -14.709 -2.02786 1.71131
upperneck 39.021 -0.34062 -3.49233
head 16.4669 0.190907 -1.7448
rclavicle 2.70347e-014 2.62396e-014
rhumerus -6.52386 -6.78193 -102.065
rradius 22.6038
rwrist -42.7115
rhand -10.9586 -9.02167
rfingers 7.12502
rthumb 15.0604 -38.4539
lclavicle 2.70347e-014 2.62396e-014
lhumerus -10.6745 -45.7877 109.977
lradius 25.0904
lwrist 41.4738
lhand -12.9327 70.6331
lfingers 7.12502
lthumb -166.842 79.8021
rfemur -27.5929 -0.230539 12.4236
rtibia 22.6902
rfoot -6.69461 -9.30773
rtoes -13.8374
lfemur -28.5677 9.28894 -7.03245
ltibia 26.4696
lfoot -9.75499 -0.39778
ltoes -20.7766
19
root -5.99218 17.8865 0.292316 -83.3983 85.287 -100.506
lowerback -1.20417 2.02016 -1.12598
upperback 3.51678 2.68721 3.9843
thorax 4.06535 1.26942 4.89042
lowerneck -14.7243 -2.02521 1.69083
upperneck 39.076 -0.31746 -3.50061
head 16.5012 0.198888 -1.74174
rclavicle -5.76476e-014 -8.34896e-014
rhumerus -6.49725 -7.05562 -102.048
rradius 22.4821
rwrist -42.2778
rhand -10.8565 -8.88187
rfingers 7.12502
rthumb 15.1588 -38.3067
lclavicle -5.76476e-014 -8.34896e-014
lhumerus -10.6798 -45.6853 109.944
lradius 25.1276
lwrist 41.372
lhand -13.0491 70.804
lfingers 7.12502
lthumb -166.954 79.624
rfemur -27.6564 -0.331465 12.3956
rtibia 22.7426
rfoot -6.58705 -9.36814
rtoes -14.5039
lfemur -28.6725 9.23218 -7.09769
ltibia 26.4547
lfoot -9.726 -0.434587
ltoes -21.1456
